<svg width="87" height="47" viewBox="0 0 87 47" fill="none" xmlns="http://www.w3.org/2000/svg">
<g filter="url(#filter0_d_661_3168)">
<path d="M6.46136 9.70436C8.09463 8.32503 9.85035 7.09919 11.7061 6.04243C14.4839 4.44305 17.4845 3.27406 20.6057 2.57533C22.4377 2.15712 24.3301 2.09185 26.182 2.38299C28.1446 2.75416 29.9556 3.68532 31.3986 5.0652C32.9137 6.51734 34.0779 8.29827 34.8031 10.2734C35.5236 12.3005 35.9139 14.4327 35.959 16.5885C35.9772 18.8127 35.8739 21.0369 35.6496 23.2513C35.3734 25.6993 35.6523 28.1749 36.4654 30.4925C37.4921 32.929 39.3049 34.9447 41.6142 36.2177C42.684 36.8437 43.8232 37.3429 45.0089 37.7055C46.1277 38.0644 47.2739 38.3329 48.4364 38.5085C50.5904 38.8244 52.775 38.89 54.9471 38.7042C56.8642 38.5215 58.769 38.22 60.6506 37.8014C65.8706 36.6379 70.8233 34.4728 75.2355 31.4256C76.6632 30.4316 78.0127 29.3284 79.2718 28.126C79.028 28.7781 78.7891 29.4063 78.5657 30.0077C78.0396 31.4856 77.5675 32.87 77.2095 34.0262C76.5039 36.3359 76.2137 37.8341 76.5049 37.9577C76.7962 38.0813 77.6147 36.8168 78.7093 34.6605C79.258 33.5876 79.8654 32.2904 80.5169 30.8403C80.823 30.1263 81.1678 29.3454 81.5136 28.5473C81.6793 28.153 81.8527 27.7454 82.0195 27.334L82.2755 26.7068L82.4132 26.3765C82.4859 26.1863 82.5453 25.9914 82.5908 25.7931C82.6963 25.3621 82.6672 24.9098 82.5074 24.4978C82.3341 24.0908 82.0316 23.7534 81.6468 23.5377C81.2503 23.3244 80.8021 23.2259 80.3518 23.2532C80.1516 23.2603 79.952 23.2789 79.7537 23.3088L79.4346 23.3562C78.5599 23.4926 77.7112 23.5994 76.9055 23.6776C75.2853 23.8646 73.7959 23.9935 72.5501 24.1295C70.053 24.3803 68.4931 24.6466 68.5355 24.9562C68.5778 25.2657 70.1451 25.5381 72.7173 25.678C73.9987 25.7408 75.5297 25.7695 77.2329 25.6839C77.7735 25.6664 78.3335 25.6156 78.9001 25.5686C77.2367 26.9253 75.5037 28.1936 73.7085 29.3681C69.4659 32.0967 64.788 34.0678 59.8833 35.1938C58.1184 35.5803 56.3334 35.8643 54.5371 36.0445C52.5915 36.2318 50.6322 36.1917 48.6987 35.9252C47.6873 35.7813 46.689 35.5594 45.7127 35.2612C44.7249 34.9627 43.7732 34.5566 42.8745 34.0502C41.0863 33.1046 39.6704 31.5812 38.8542 29.7248C38.1475 27.7453 37.8886 25.6303 38.0961 23.5324C38.2917 21.2414 38.3526 18.9416 38.2787 16.645C38.176 14.2547 37.687 11.8995 36.8309 9.67138C35.9361 7.39968 34.5304 5.36881 32.7229 3.73639C30.9554 2.12985 28.7555 1.07956 26.3935 0.714598C24.3191 0.440854 22.2087 0.578284 20.1819 1.11912C16.9632 1.96221 13.8998 3.32582 11.1124 5.15622C9.27414 6.33222 7.58062 7.7229 6.0676 9.29886C5.02467 10.416 4.56551 11.1041 4.63847 11.1462C4.71143 11.1883 5.32929 10.6542 6.48728 9.67479" fill="#A9DCFF"/>
</g>
<defs>
<filter id="filter0_d_661_3168" x="0.632812" y="0.577637" width="86.0234" height="46.2295" filterUnits="userSpaceOnUse" color-interpolation-filters="sRGB">
<feFlood flood-opacity="0" result="BackgroundImageFix"/>
<feColorMatrix in="SourceAlpha" type="matrix" values="0 0 0 0 0 0 0 0 0 0 0 0 0 0 0 0 0 0 127 0" result="hardAlpha"/>
<feOffset dy="4"/>
<feGaussianBlur stdDeviation="2"/>
<feComposite in2="hardAlpha" operator="out"/>
<feColorMatrix type="matrix" values="0 0 0 0 0 0 0 0 0 0.537044 0 0 0 0 0.908333 0 0 0 0.2 0"/>
<feBlend mode="normal" in2="BackgroundImageFix" result="effect1_dropShadow_661_3168"/>
<feBlend mode="normal" in="SourceGraphic" in2="effect1_dropShadow_661_3168" result="shape"/>
</filter>
</defs>
</svg>
