<svg width="24" height="24" viewBox="0 0 24 24" fill="none" xmlns="http://www.w3.org/2000/svg">
<path d="M8.15113 10.3506L10.7216 12.1871C11.4864 12.7334 12.5136 12.7334 13.2783 12.1871L15.8489 10.3506M2.88539 15.1517C2.37154 13.0823 2.37154 10.9186 2.88539 8.84924C3.55805 6.14032 5.70602 4.04583 8.43056 3.44211L8.88443 3.34154C10.9366 2.88681 13.0634 2.88681 15.1156 3.34154L15.5694 3.44211C18.294 4.04583 20.442 6.14033 21.1146 8.84924C21.6285 10.9186 21.6285 13.0823 21.1146 15.1517C20.442 17.8607 18.294 19.9552 15.5694 20.5589L15.1156 20.6594C13.0634 21.1142 10.9366 21.1142 8.88443 20.6594L8.43056 20.5589C5.70601 19.9552 3.55805 17.8607 2.88539 15.1517Z" stroke="white" stroke-width="1.5" stroke-linecap="round"/>
</svg>
