<svg width="1440" height="647" viewBox="0 0 1440 647" fill="none" xmlns="http://www.w3.org/2000/svg">
<g clip-path="url(#clip0_742_3186)">
<rect width="1440" height="647" fill="#F5FBFF"/>
<mask id="mask0_742_3186" style="mask-type:alpha" maskUnits="userSpaceOnUse" x="-9" y="-233" width="1449" height="5733">
<rect x="-9" y="-233" width="1449" height="5733" fill="#D9D9D9"/>
</mask>
<g mask="url(#mask0_742_3186)">
<g filter="url(#filter0_f_742_3186)">
</g>
<g filter="url(#filter1_f_742_3186)">
</g>
<g filter="url(#filter2_f_742_3186)">
<path d="M1066.9 -261.265C1194.85 -214.466 1258.05 -79.4127 1208.07 40.3841C1158.08 160.181 1013.84 219.357 885.891 172.558C757.941 125.759 884.126 59.9774 934.11 -59.8194C984.095 -179.616 938.95 -308.064 1066.9 -261.265Z" fill="#C2E6FF"/>
<path d="M837.34 148.672C769.86 219.369 653.945 225.463 578.437 162.282C502.929 99.1022 496.421 -9.42655 563.901 -80.1234C631.381 -150.82 647.413 -52.2695 722.921 10.9107C798.429 74.0908 904.82 77.9754 837.34 148.672Z" fill="#C2E6FF"/>
<path d="M527.947 327.336C466.602 391.605 361.226 397.145 292.583 339.709C223.94 282.273 218.023 183.612 279.368 119.343C340.713 55.0734 355.287 144.664 423.93 202.1C492.573 259.536 589.291 263.067 527.947 327.336Z" fill="#C2E6FF"/>
<path d="M177.65 309.336C116.305 373.605 10.9291 379.144 -57.714 321.708C-126.357 264.272 -132.273 165.611 -70.9287 101.342C-9.584 37.0726 4.99053 126.663 73.6336 184.099C142.277 241.535 238.994 245.066 177.65 309.336Z" fill="#C2E6FF"/>
<path d="M1630.18 250.037C1553.53 330.339 1421.87 337.26 1336.11 265.497C1250.34 193.733 1242.95 70.4598 1319.59 -9.84177C1396.24 -90.1433 1414.45 21.7963 1500.22 93.5599C1585.98 165.324 1706.83 169.736 1630.18 250.037Z" fill="#C2E6FF"/>
<path d="M854.627 299.911C791.12 366.445 682.031 372.18 610.969 312.72C539.907 253.26 533.782 151.122 597.289 84.5879C660.795 18.054 675.883 110.802 746.945 170.262C818.007 229.721 918.133 233.377 854.627 299.911Z" fill="#C2E6FF"/>
<path d="M1251.01 145.637C1168.97 59.6809 1028.04 52.2722 936.23 129.089C844.424 205.906 836.511 337.859 918.556 423.815C1000.6 509.771 1020.09 389.949 1111.9 313.133C1203.7 236.316 1333.06 231.593 1251.01 145.637Z" fill="#DCDFFF"/>
<path d="M1218.36 334.806C1288.14 429.787 1426.94 453.825 1528.38 388.497C1629.83 323.168 1655.5 193.211 1585.73 98.23C1515.95 3.24894 1480.43 119.8 1378.99 185.129C1277.54 250.458 1148.59 239.825 1218.36 334.806Z" fill="#DCDFFF"/>
<path d="M414.342 -37.362C332.297 -123.318 191.363 -130.727 99.5576 -53.9097C7.75195 22.9071 -0.160937 154.861 81.8837 240.816C163.928 326.772 183.421 206.951 275.227 130.134C367.032 53.3169 496.386 48.5939 414.342 -37.362Z" fill="#DCDFFF"/>
<path d="M565.167 -189.913C450.386 -147.93 393.687 -26.777 438.527 80.6904C483.367 188.158 612.765 241.244 727.546 199.261C842.327 157.278 729.129 98.2671 684.289 -9.20025C639.449 -116.668 679.948 -231.895 565.167 -189.913Z" fill="#DCDFFF"/>
</g>
</g>
</g>
<defs>
<filter id="filter0_f_742_3186" x="-160.352" y="532.993" width="1927.62" height="890.866" filterUnits="userSpaceOnUse" color-interpolation-filters="sRGB">
<feFlood flood-opacity="0" result="BackgroundImageFix"/>
<feBlend mode="normal" in="SourceGraphic" in2="BackgroundImageFix" result="shape"/>
<feGaussianBlur stdDeviation="100" result="effect1_foregroundBlur_742_3186"/>
</filter>
<filter id="filter1_f_742_3186" x="-332.156" y="637.335" width="2113.92" height="1909.77" filterUnits="userSpaceOnUse" color-interpolation-filters="sRGB">
<feFlood flood-opacity="0" result="BackgroundImageFix"/>
<feBlend mode="normal" in="SourceGraphic" in2="BackgroundImageFix" result="shape"/>
<feGaussianBlur stdDeviation="100" result="effect1_foregroundBlur_742_3186"/>
</filter>
<filter id="filter2_f_742_3186" x="-313.328" y="-471.129" width="2167.91" height="1124.73" filterUnits="userSpaceOnUse" color-interpolation-filters="sRGB">
<feFlood flood-opacity="0" result="BackgroundImageFix"/>
<feBlend mode="normal" in="SourceGraphic" in2="BackgroundImageFix" result="shape"/>
<feGaussianBlur stdDeviation="100" result="effect1_foregroundBlur_742_3186"/>
</filter>
<clipPath id="clip0_742_3186">
<rect width="1440" height="647" fill="white"/>
</clipPath>
</defs>
</svg>
