<svg width="1440" height="837" viewBox="0 0 1440 837" fill="none" xmlns="http://www.w3.org/2000/svg">
<g clip-path="url(#clip0_718_3268)">
<mask id="mask0_718_3268" style="mask-type:alpha" maskUnits="userSpaceOnUse" x="0" y="-1008" width="1440" height="5733">
<rect y="-1008" width="1440" height="5733" fill="#D9D9D9"/>
</mask>
<g mask="url(#mask0_718_3268)">
<g filter="url(#filter0_f_718_3268)">
</g>
<g filter="url(#filter1_f_718_3268)">
<path d="M1019.12 484.83C1083 627.549 1244.99 693.919 1380.94 633.071C1516.89 572.224 1575.32 407.2 1511.44 264.481C1447.56 121.762 1380.12 266.642 1244.17 327.49C1108.22 388.337 955.247 342.111 1019.12 484.83Z" fill="#C2E6FF"/>
<path d="M951.79 399.049C1015.06 469.845 1123.74 475.947 1194.54 412.678C1265.33 349.409 1271.44 240.727 1208.17 169.931C1144.9 99.1344 1129.87 197.824 1059.07 261.093C988.273 324.362 888.521 328.252 951.79 399.049Z" fill="#C2E6FF"/>
</g>
<g filter="url(#filter2_f_718_3268)">
</g>
<g filter="url(#filter3_d_718_3268)">
<path d="M1304.79 493.008C1308.11 491.845 1311 494.055 1311.44 497.633C1311.88 501.318 1309.4 506.579 1305.88 507.848C1303.84 508.582 1301.23 508.187 1299.96 506.58C1297.59 503.583 1298.76 497.383 1302.59 494.206" stroke="#E9F6FF" stroke-width="2" stroke-miterlimit="1.5" stroke-linecap="round" stroke-linejoin="round"/>
<path d="M1298.32 476.301C1301.64 475.137 1304.53 477.348 1304.97 480.925C1305.42 484.61 1302.93 489.872 1299.41 491.141C1297.37 491.874 1294.76 491.479 1293.49 489.872C1291.12 486.876 1292.29 480.676 1296.12 477.499" stroke="#E9F6FF" stroke-width="2" stroke-miterlimit="1.5" stroke-linecap="round" stroke-linejoin="round"/>
<path d="M1283.9 468.107C1287.22 466.944 1290.11 469.154 1290.55 472.732C1290.99 476.417 1288.51 481.678 1284.99 482.947C1282.95 483.681 1280.34 483.286 1279.07 481.679C1276.7 478.682 1277.87 472.482 1281.7 469.305" stroke="#E9F6FF" stroke-width="2" stroke-miterlimit="1.5" stroke-linecap="round" stroke-linejoin="round"/>
<path d="M1266.63 472.268C1269.95 471.105 1272.84 473.315 1273.27 476.892C1273.72 480.578 1271.24 485.839 1267.71 487.108C1265.67 487.841 1263.07 487.447 1261.8 485.839C1259.43 482.843 1260.59 476.643 1264.43 473.466" stroke="#E9F6FF" stroke-width="2" stroke-miterlimit="1.5" stroke-linecap="round" stroke-linejoin="round"/>
<path d="M1272.94 493.509C1279.63 480.998 1294.45 490.332 1291.31 502.923C1302.77 509.887 1296.14 533.566 1283.68 525.307C1275.91 515.098 1275.1 513.238 1261.15 512.772C1260.18 512.74 1257.61 510.248 1256.3 508.377C1248.34 496.98 1263.02 484.836 1272.94 493.509Z" stroke="#E9F6FF" stroke-width="2" stroke-miterlimit="1.5" stroke-linecap="round" stroke-linejoin="round"/>
<path d="M1289.79 410.135C1293.11 408.972 1296 411.182 1296.44 414.76C1296.88 418.445 1294.4 423.706 1290.88 424.975C1288.84 425.709 1286.23 425.314 1284.96 423.706C1282.59 420.71 1283.76 414.51 1287.59 411.333" stroke="#E9F6FF" stroke-width="2" stroke-miterlimit="1.5" stroke-linecap="round" stroke-linejoin="round"/>
<path d="M1283.32 393.427C1286.64 392.264 1289.53 394.474 1289.97 398.052C1290.42 401.737 1287.93 406.998 1284.41 408.267C1282.37 409.001 1279.76 408.606 1278.49 406.998C1276.12 404.002 1277.29 397.802 1281.12 394.625" stroke="#E9F6FF" stroke-width="2" stroke-miterlimit="1.5" stroke-linecap="round" stroke-linejoin="round"/>
<path d="M1268.9 385.234C1272.22 384.071 1275.11 386.281 1275.55 389.858C1275.99 393.543 1273.51 398.805 1269.99 400.074C1267.95 400.807 1265.34 400.412 1264.07 398.805C1261.7 395.809 1262.87 389.609 1266.7 386.432" stroke="#E9F6FF" stroke-width="2" stroke-miterlimit="1.5" stroke-linecap="round" stroke-linejoin="round"/>
<path d="M1251.63 389.395C1254.95 388.232 1257.84 390.442 1258.27 394.019C1258.72 397.705 1256.24 402.966 1252.71 404.235C1250.67 404.968 1248.07 404.574 1246.8 402.966C1244.43 399.97 1245.59 393.77 1249.43 390.593" stroke="#E9F6FF" stroke-width="2" stroke-miterlimit="1.5" stroke-linecap="round" stroke-linejoin="round"/>
<path d="M1257.94 410.635C1264.63 398.125 1279.45 407.458 1276.31 420.049C1287.77 427.014 1281.14 450.692 1268.68 442.434C1260.91 432.224 1260.1 430.364 1246.15 429.899C1245.18 429.867 1242.61 427.374 1241.3 425.504C1233.34 414.107 1248.02 401.962 1257.94 410.635Z" stroke="#E9F6FF" stroke-width="2" stroke-miterlimit="1.5" stroke-linecap="round" stroke-linejoin="round"/>
<path d="M1375.82 395.928C1379.14 394.764 1382.03 396.975 1382.47 400.552C1382.92 404.237 1380.43 409.499 1376.91 410.768C1374.87 411.501 1372.26 411.106 1370.99 409.499C1368.62 406.503 1369.79 400.303 1373.62 397.126" stroke="#E9F6FF" stroke-width="2" stroke-miterlimit="1.5" stroke-linecap="round" stroke-linejoin="round"/>
<path d="M1369.35 379.22C1372.67 378.057 1375.56 380.267 1376 383.845C1376.45 387.53 1373.96 392.791 1370.44 394.06C1368.4 394.794 1365.79 394.399 1364.52 392.791C1362.15 389.795 1363.32 383.595 1367.16 380.418" stroke="#E9F6FF" stroke-width="2" stroke-miterlimit="1.5" stroke-linecap="round" stroke-linejoin="round"/>
<path d="M1354.93 371.027C1358.25 369.863 1361.14 372.074 1361.58 375.651C1362.02 379.336 1359.54 384.598 1356.02 385.867C1353.98 386.6 1351.37 386.205 1350.1 384.598C1347.73 381.602 1348.9 375.402 1352.73 372.225" stroke="#E9F6FF" stroke-width="2" stroke-miterlimit="1.5" stroke-linecap="round" stroke-linejoin="round"/>
<path d="M1337.66 375.188C1340.98 374.025 1343.87 376.235 1344.3 379.812C1344.75 383.498 1342.27 388.759 1338.74 390.028C1336.71 390.761 1334.1 390.367 1332.83 388.759C1330.46 385.763 1331.62 379.563 1335.46 376.386" stroke="#E9F6FF" stroke-width="2" stroke-miterlimit="1.5" stroke-linecap="round" stroke-linejoin="round"/>
<path d="M1343.97 396.428C1350.66 383.918 1365.48 393.251 1362.34 405.842C1373.8 412.807 1367.17 436.485 1354.71 428.227C1346.95 418.017 1346.13 416.157 1332.18 415.692C1331.21 415.66 1328.64 413.167 1327.33 411.297C1319.37 399.9 1334.05 387.755 1343.97 396.428Z" stroke="#E9F6FF" stroke-width="2" stroke-miterlimit="1.5" stroke-linecap="round" stroke-linejoin="round"/>
<path d="M1345.83 307.529C1349.15 306.366 1352.04 308.576 1352.48 312.154C1352.92 315.839 1350.44 321.1 1346.92 322.369C1344.88 323.103 1342.27 322.708 1341 321.101C1338.63 318.104 1339.79 311.904 1343.63 308.727" stroke="#E9F6FF" stroke-width="2" stroke-miterlimit="1.5" stroke-linecap="round" stroke-linejoin="round"/>
<path d="M1339.36 290.822C1342.68 289.658 1345.57 291.869 1346.01 295.446C1346.45 299.131 1343.97 304.393 1340.45 305.662C1338.41 306.395 1335.8 306 1334.53 304.393C1332.16 301.397 1333.33 295.197 1337.16 292.02" stroke="#E9F6FF" stroke-width="2" stroke-miterlimit="1.5" stroke-linecap="round" stroke-linejoin="round"/>
<path d="M1324.94 282.628C1328.26 281.465 1331.15 283.675 1331.58 287.253C1332.03 290.938 1329.55 296.199 1326.02 297.468C1323.99 298.202 1321.38 297.807 1320.11 296.2C1317.74 293.203 1318.9 287.003 1322.74 283.826" stroke="#E9F6FF" stroke-width="2" stroke-miterlimit="1.5" stroke-linecap="round" stroke-linejoin="round"/>
<path d="M1307.67 286.789C1310.99 285.626 1313.88 287.837 1314.31 291.414C1314.76 295.099 1312.28 300.36 1308.75 301.629C1306.71 302.363 1304.11 301.968 1302.83 300.361C1300.47 297.364 1301.63 291.164 1305.47 287.988" stroke="#E9F6FF" stroke-width="2" stroke-miterlimit="1.5" stroke-linecap="round" stroke-linejoin="round"/>
<path d="M1313.98 308.03C1320.67 295.519 1335.49 304.853 1332.35 317.444C1343.81 324.408 1337.18 348.087 1324.72 339.828C1316.95 329.619 1316.14 327.759 1302.19 327.293C1301.22 327.261 1298.65 324.769 1297.34 322.898C1289.38 311.501 1304.06 299.357 1313.98 308.03Z" stroke="#E9F6FF" stroke-width="2" stroke-miterlimit="1.5" stroke-linecap="round" stroke-linejoin="round"/>
<path d="M1435.81 307.53C1439.13 306.366 1442.02 308.577 1442.45 312.154C1442.9 315.839 1440.42 321.101 1436.89 322.37C1434.85 323.103 1432.25 322.708 1430.98 321.101C1428.61 318.105 1429.77 311.905 1433.61 308.728" stroke="#E9F6FF" stroke-width="2" stroke-miterlimit="1.5" stroke-linecap="round" stroke-linejoin="round"/>
<path d="M1429.34 290.822C1432.66 289.658 1435.55 291.869 1435.98 295.446C1436.43 299.131 1433.95 304.393 1430.42 305.662C1428.39 306.395 1425.78 306 1424.51 304.393C1422.14 301.397 1423.3 295.197 1427.14 292.02" stroke="#E9F6FF" stroke-width="2" stroke-miterlimit="1.5" stroke-linecap="round" stroke-linejoin="round"/>
<path d="M1414.92 282.628C1418.24 281.465 1421.13 283.675 1421.56 287.253C1422.01 290.938 1419.53 296.199 1416 297.468C1413.96 298.202 1411.36 297.807 1410.08 296.2C1407.72 293.203 1408.88 287.003 1412.72 283.826" stroke="#E9F6FF" stroke-width="2" stroke-miterlimit="1.5" stroke-linecap="round" stroke-linejoin="round"/>
<path d="M1397.64 286.789C1400.96 285.626 1403.85 287.837 1404.29 291.414C1404.74 295.099 1402.25 300.36 1398.73 301.629C1396.69 302.363 1394.08 301.968 1392.81 300.361C1390.44 297.364 1391.61 291.164 1395.44 287.988" stroke="#E9F6FF" stroke-width="2" stroke-miterlimit="1.5" stroke-linecap="round" stroke-linejoin="round"/>
<path d="M1403.96 308.03C1410.65 295.519 1425.47 304.853 1422.33 317.444C1433.79 324.408 1427.16 348.087 1414.7 339.828C1406.93 329.619 1406.11 327.759 1392.16 327.293C1391.2 327.261 1388.62 324.769 1387.32 322.898C1379.36 311.501 1394.03 299.357 1403.96 308.03Z" stroke="#E9F6FF" stroke-width="2" stroke-miterlimit="1.5" stroke-linecap="round" stroke-linejoin="round"/>
</g>
</g>
</g>
<defs>
<filter id="filter0_f_718_3268" x="419.727" y="-1282.13" width="1338.84" height="1333.58" filterUnits="userSpaceOnUse" color-interpolation-filters="sRGB">
<feFlood flood-opacity="0" result="BackgroundImageFix"/>
<feBlend mode="normal" in="SourceGraphic" in2="BackgroundImageFix" result="shape"/>
<feGaussianBlur stdDeviation="100" result="effect1_foregroundBlur_718_3268"/>
</filter>
<filter id="filter1_f_718_3268" x="731.656" y="-54.5977" width="1005.66" height="910.247" filterUnits="userSpaceOnUse" color-interpolation-filters="sRGB">
<feFlood flood-opacity="0" result="BackgroundImageFix"/>
<feBlend mode="normal" in="SourceGraphic" in2="BackgroundImageFix" result="shape"/>
<feGaussianBlur stdDeviation="100" result="effect1_foregroundBlur_718_3268"/>
</filter>
<filter id="filter2_f_718_3268" x="-204.172" y="690.402" width="1957.75" height="897.097" filterUnits="userSpaceOnUse" color-interpolation-filters="sRGB">
<feFlood flood-opacity="0" result="BackgroundImageFix"/>
<feBlend mode="normal" in="SourceGraphic" in2="BackgroundImageFix" result="shape"/>
<feGaussianBlur stdDeviation="100" result="effect1_foregroundBlur_718_3268"/>
</filter>
<filter id="filter3_d_718_3268" x="1234.02" y="281.3" width="213.461" height="254.734" filterUnits="userSpaceOnUse" color-interpolation-filters="sRGB">
<feFlood flood-opacity="0" result="BackgroundImageFix"/>
<feColorMatrix in="SourceAlpha" type="matrix" values="0 0 0 0 0 0 0 0 0 0 0 0 0 0 0 0 0 0 127 0" result="hardAlpha"/>
<feOffset dy="4"/>
<feGaussianBlur stdDeviation="2"/>
<feComposite in2="hardAlpha" operator="out"/>
<feColorMatrix type="matrix" values="0 0 0 0 0 0 0 0 0 0.537044 0 0 0 0 0.908333 0 0 0 0.2 0"/>
<feBlend mode="normal" in2="BackgroundImageFix" result="effect1_dropShadow_718_3268"/>
<feBlend mode="normal" in="SourceGraphic" in2="effect1_dropShadow_718_3268" result="shape"/>
</filter>
<clipPath id="clip0_718_3268">
<rect width="1440" height="837" fill="white"/>
</clipPath>
</defs>
</svg>
