<svg width="1440" height="818" viewBox="0 0 1440 818" fill="none" xmlns="http://www.w3.org/2000/svg">
<g clip-path="url(#clip0_718_3596)">
<mask id="mask0_718_3596" style="mask-type:alpha" maskUnits="userSpaceOnUse" x="0" y="-2973" width="1440" height="5733">
<rect y="-2973" width="1440" height="5733" fill="#D9D9D9"/>
</mask>
<g mask="url(#mask0_718_3596)">
<g filter="url(#filter0_f_718_3596)">
<path d="M-134.538 424.037C-62.7743 504.339 60.4989 511.26 140.8 439.496C221.102 367.732 228.023 244.459 156.26 164.158C84.496 83.8562 67.4461 195.796 -12.8555 267.559C-93.157 339.323 -206.302 343.735 -134.538 424.037Z" fill="#C2E6FF"/>
<path d="M-11.8631 512.402C61.1088 594.055 186.457 601.093 268.111 528.121C349.764 455.149 356.802 329.801 283.83 248.147C210.858 166.494 193.521 280.318 111.868 353.29C30.2146 426.262 -84.8349 430.748 -11.8631 512.402Z" fill="#C2E6FF"/>
<path d="M224.249 218.637C301.066 132.681 433.019 125.272 518.975 202.089C604.931 278.906 612.34 410.86 535.523 496.815C458.706 582.771 440.455 462.95 354.5 386.133C268.544 309.316 147.432 304.593 224.249 218.637Z" fill="#DCDFFF"/>
</g>
<g filter="url(#filter1_f_718_3596)">
<path d="M406.915 177.735C287.118 224.534 227.941 359.587 274.741 479.384C321.54 599.18 456.593 658.357 576.389 611.558C696.186 564.758 578.041 498.977 531.242 379.18C484.443 259.383 526.711 130.936 406.915 177.735Z" fill="#C2E6FF"/>
<path d="M-162.759 361.057C-85.9423 275.101 46.0111 267.692 131.967 344.509C217.923 421.326 298.817 474.464 222 560.42C145.183 646.376 53.4474 605.369 -32.5085 528.553C-118.464 451.736 -239.576 447.013 -162.759 361.057Z" fill="#DCDFFF"/>
<path d="M1398.33 521.021C1350.17 574.906 1267.45 579.55 1213.56 531.394C1159.68 483.238 1155.03 400.517 1203.19 346.632C1251.35 292.747 1262.79 367.862 1316.67 416.018C1370.56 464.174 1446.48 467.135 1398.33 521.021Z" fill="#DCDFFF"/>
</g>
</g>
</g>
<defs>
<filter id="filter0_f_718_3596" x="-357.375" y="-63.6641" width="1145.99" height="842.224" filterUnits="userSpaceOnUse" color-interpolation-filters="sRGB">
<feFlood flood-opacity="0" result="BackgroundImageFix"/>
<feBlend mode="normal" in="SourceGraphic" in2="BackgroundImageFix" result="shape"/>
<feGaussianBlur stdDeviation="100" result="effect1_foregroundBlur_718_3596"/>
</filter>
<filter id="filter1_f_718_3596" x="-387.203" y="-32.1299" width="2178.81" height="1598.73" filterUnits="userSpaceOnUse" color-interpolation-filters="sRGB">
<feFlood flood-opacity="0" result="BackgroundImageFix"/>
<feBlend mode="normal" in="SourceGraphic" in2="BackgroundImageFix" result="shape"/>
<feGaussianBlur stdDeviation="100" result="effect1_foregroundBlur_718_3596"/>
</filter>
<clipPath id="clip0_718_3596">
<rect width="1440" height="818" fill="white"/>
</clipPath>
</defs>
</svg>
