<svg width="87" height="47" viewBox="0 0 87 47" fill="none" xmlns="http://www.w3.org/2000/svg">
<g filter="url(#filter0_d_507_2653)">
<path d="M6.80511 9.70436C8.43838 8.32503 10.1941 7.09919 12.0499 6.04243C14.8276 4.44305 17.8282 3.27406 20.9494 2.57533C22.7815 2.15712 24.6739 2.09185 26.5257 2.38299C28.4883 2.75416 30.2993 3.68532 31.7423 5.0652C33.2575 6.51734 34.4216 8.29827 35.1469 10.2734C35.8674 12.3005 36.2577 14.4327 36.3028 16.5885C36.3209 18.8127 36.2176 21.0369 35.9934 23.2513C35.7171 25.6993 35.996 28.1749 36.8092 30.4925C37.8358 32.929 39.6486 34.9447 41.958 36.2177C43.0278 36.8437 44.1669 37.3429 45.3526 37.7055C46.4715 38.0644 47.6176 38.3329 48.7802 38.5085C50.9341 38.8244 53.1187 38.89 55.2909 38.7042C57.208 38.5215 59.1128 38.22 60.9943 37.8014C66.2143 36.6379 71.1671 34.4728 75.5793 31.4256C77.007 30.4316 78.3565 29.3284 79.6156 28.126C79.3717 28.7781 79.1329 29.4063 78.9094 30.0077C78.3834 31.4856 77.9113 32.87 77.5533 34.0262C76.8477 36.3359 76.5575 37.8341 76.8487 37.9577C77.1399 38.0813 77.9584 36.8168 79.053 34.6605C79.6017 33.5876 80.2092 32.2904 80.8607 30.8403C81.1668 30.1263 81.5115 29.3454 81.8573 28.5473C82.023 28.153 82.1965 27.7454 82.3633 27.334L82.6193 26.7068L82.7569 26.3765C82.8297 26.1863 82.889 25.9914 82.9345 25.7931C83.0401 25.3621 83.0109 24.9098 82.8511 24.4978C82.6778 24.0908 82.3753 23.7534 81.9905 23.5377C81.5941 23.3244 81.1458 23.2259 80.6955 23.2532C80.4954 23.2603 80.2957 23.2789 80.0975 23.3088L79.7783 23.3562C78.9037 23.4926 78.0549 23.5994 77.2492 23.6776C75.629 23.8646 74.1397 23.9935 72.8939 24.1295C70.3967 24.3803 68.8368 24.6466 68.8792 24.9562C68.9216 25.2657 70.4888 25.5381 73.061 25.678C74.3424 25.7408 75.8735 25.7695 77.5766 25.6839C78.1173 25.6664 78.6772 25.6156 79.2438 25.5686C77.5804 26.9253 75.8475 28.1936 74.0523 29.3681C69.8097 32.0967 65.1318 34.0678 60.2271 35.1938C58.4622 35.5803 56.6771 35.8643 54.8809 36.0445C52.9353 36.2318 50.976 36.1917 49.0424 35.9252C48.0311 35.7813 47.0328 35.5594 46.0564 35.2612C45.0686 34.9627 44.1169 34.5566 43.2182 34.0502C41.43 33.1046 40.0141 31.5812 39.198 29.7248C38.4913 27.7453 38.2323 25.6303 38.4399 23.5324C38.6354 21.2414 38.6964 18.9416 38.6225 16.645C38.5198 14.2547 38.0308 11.8995 37.1747 9.67138C36.2798 7.39968 34.8741 5.36881 33.0667 3.73639C31.2992 2.12985 29.0993 1.07956 26.7373 0.714598C24.6628 0.440854 22.5525 0.578284 20.5256 1.11912C17.3069 1.96221 14.2435 3.32582 11.4561 5.15622C9.61789 6.33222 7.92437 7.7229 6.41135 9.29886C5.36842 10.416 4.90926 11.1041 4.98222 11.1462C5.05518 11.1883 5.67304 10.6542 6.83103 9.67479" fill="#F5FBFF"/>
</g>
<defs>
<filter id="filter0_d_507_2653" x="0.976562" y="0.577637" width="86.0234" height="46.2295" filterUnits="userSpaceOnUse" color-interpolation-filters="sRGB">
<feFlood flood-opacity="0" result="BackgroundImageFix"/>
<feColorMatrix in="SourceAlpha" type="matrix" values="0 0 0 0 0 0 0 0 0 0 0 0 0 0 0 0 0 0 127 0" result="hardAlpha"/>
<feOffset dy="4"/>
<feGaussianBlur stdDeviation="2"/>
<feComposite in2="hardAlpha" operator="out"/>
<feColorMatrix type="matrix" values="0 0 0 0 0 0 0 0 0 0.537044 0 0 0 0 0.908333 0 0 0 0.2 0"/>
<feBlend mode="normal" in2="BackgroundImageFix" result="effect1_dropShadow_507_2653"/>
<feBlend mode="normal" in="SourceGraphic" in2="effect1_dropShadow_507_2653" result="shape"/>
</filter>
</defs>
</svg>
