<svg width="1430" height="490" viewBox="0 0 1430 490" fill="none" xmlns="http://www.w3.org/2000/svg">
<mask id="mask0_771_3074" style="mask-type:alpha" maskUnits="userSpaceOnUse" x="0" y="0" width="1430" height="490">
<rect width="1430" height="490" rx="60" fill="#A9DCFF"/>
</mask>
<g mask="url(#mask0_771_3074)">
<rect x="-70" y="-251" width="1645" height="1253" fill="#D3D8FF"/>
<path d="M1435.15 72.0904C1437.3 103.087 1422.83 128.471 1394.78 141.831C1377.65 149.99 1348.94 149.978 1340.42 129.355C1334.49 115.016 1357.17 86.4476 1367.85 104.232C1373.29 113.292 1366.22 127.951 1360.65 135.107C1344.67 155.623 1316.15 158.168 1293.55 147.095C1273.58 137.315 1263.84 112.788 1271.41 91.8069C1276.04 79.0024 1293.01 63.9894 1306.53 75.5999C1327.45 93.5568 1284.31 112.859 1267.39 108.968C1206.23 94.8991 1228.69 9.27735 1261.06 -21.579" stroke="#002D4C" stroke-opacity="0.1" stroke-width="10" stroke-miterlimit="1.5" stroke-linecap="round" stroke-linejoin="round"/>
<path d="M-19.5456 224.908C8.06655 185.895 50.0574 169.751 96.5565 181.152C124.958 188.119 159.244 216.103 149.343 248.968C142.457 271.817 87.5678 283.763 92.1251 252.175C94.4463 236.083 117.16 225.508 130.782 222.412C169.835 213.536 206.369 238.277 222.587 273.486C236.913 304.582 224.668 343.285 195.199 360.901C177.214 371.652 142.332 373.007 137.483 346.004C129.983 304.241 200.296 323.268 216.709 344.378C276.061 420.709 165.883 500.821 97.1901 506.052" stroke="#002D4C" stroke-opacity="0.1" stroke-width="10" stroke-miterlimit="1.5" stroke-linecap="round" stroke-linejoin="round"/>
</g>
</svg>
