<svg width="1440" height="789" viewBox="0 0 1440 789" fill="none" xmlns="http://www.w3.org/2000/svg">
<g clip-path="url(#clip0_718_3350)">
<mask id="mask0_718_3350" style="mask-type:alpha" maskUnits="userSpaceOnUse" x="0" y="-1751" width="1440" height="5733">
<rect y="-1751" width="1440" height="5733" fill="#D9D9D9"/>
</mask>
<g mask="url(#mask0_718_3350)">
<g filter="url(#filter0_f_718_3350)">
<path d="M1019.12 -258.17C1083 -115.451 1244.99 -49.0812 1380.94 -109.929C1516.89 -170.776 1575.32 -335.8 1511.44 -478.519C1447.56 -621.238 1380.12 -476.358 1244.17 -415.51C1108.22 -354.663 955.247 -400.889 1019.12 -258.17Z" fill="#C2E6FF"/>
</g>
<g filter="url(#filter1_f_718_3350)">
<path d="M1530.74 579.436C1458.98 659.738 1335.7 666.659 1255.4 594.896C1175.1 523.132 1168.18 399.859 1239.94 319.557C1311.71 239.256 1328.76 351.195 1409.06 422.959C1489.36 494.723 1602.5 499.135 1530.74 579.436Z" fill="#C2E6FF"/>
<path d="M1432.36 249.637C1355.54 163.681 1223.59 156.272 1137.63 233.089C1051.68 309.906 1044.27 441.86 1121.09 527.815C1197.9 613.771 1216.15 493.95 1302.11 417.133C1388.07 340.316 1509.18 335.593 1432.36 249.637Z" fill="#DCDFFF"/>
</g>
</g>
</g>
<defs>
<filter id="filter0_f_718_3350" x="-378.375" y="-856.767" width="2115.7" height="969.417" filterUnits="userSpaceOnUse" color-interpolation-filters="sRGB">
<feFlood flood-opacity="0" result="BackgroundImageFix"/>
<feBlend mode="normal" in="SourceGraphic" in2="BackgroundImageFix" result="shape"/>
<feGaussianBlur stdDeviation="100" result="effect1_foregroundBlur_718_3350"/>
</filter>
<filter id="filter1_f_718_3350" x="867.992" y="-20.0068" width="885.586" height="864.506" filterUnits="userSpaceOnUse" color-interpolation-filters="sRGB">
<feFlood flood-opacity="0" result="BackgroundImageFix"/>
<feBlend mode="normal" in="SourceGraphic" in2="BackgroundImageFix" result="shape"/>
<feGaussianBlur stdDeviation="100" result="effect1_foregroundBlur_718_3350"/>
</filter>
<clipPath id="clip0_718_3350">
<rect width="1440" height="789" fill="white"/>
</clipPath>
</defs>
</svg>
