<svg width="30" height="30" viewBox="0 0 30 30" fill="none" xmlns="http://www.w3.org/2000/svg">
<rect x="1" y="1.00024" width="28" height="28" rx="8" stroke="#002D4C" stroke-width="2"/>
<path d="M12.4043 21.0002C17.686 21.0002 20.5757 16.383 20.5757 12.3802C20.5757 12.2504 20.5729 12.1177 20.5675 11.9879C21.1296 11.559 21.6147 11.0279 22 10.4193C21.4765 10.665 20.9206 10.8255 20.3514 10.8952C20.9507 10.5163 21.3995 9.92095 21.6145 9.21962C21.0507 9.57209 20.4341 9.82073 19.7912 9.95488C19.358 9.46933 18.7852 9.14784 18.1615 9.04011C17.5377 8.93238 16.8977 9.04442 16.3403 9.35889C15.783 9.67337 15.3394 10.1728 15.0781 10.7799C14.8168 11.387 14.7523 12.068 14.8947 12.7177C13.7531 12.6572 12.6363 12.3444 11.6167 11.7994C10.597 11.2545 9.69732 10.4895 8.9759 9.55422C8.60923 10.2211 8.49703 11.0102 8.6621 11.7613C8.82717 12.5123 9.25712 13.1688 9.86457 13.5974C9.40853 13.5822 8.96249 13.4526 8.56328 13.2196V13.2571C8.56287 13.9569 8.79222 14.6353 9.21235 15.1769C9.63247 15.7186 10.2174 16.09 10.8678 16.2281C10.4454 16.35 10.002 16.3678 9.57199 16.28C9.75552 16.8819 10.1126 17.4083 10.5934 17.7858C11.0741 18.1633 11.6547 18.373 12.2539 18.3857C11.2366 19.2287 9.97993 19.6859 8.68633 19.6838C8.45692 19.6834 8.22773 19.6686 8 19.6393C9.31417 20.5287 10.8429 21.0011 12.4043 21.0002Z" fill="#002D4C"/>
</svg>
