<svg width="1440" height="799" viewBox="0 0 1440 799" fill="none" xmlns="http://www.w3.org/2000/svg">
<g clip-path="url(#clip0_719_3760)">
<mask id="mask0_719_3760" style="mask-type:alpha" maskUnits="userSpaceOnUse" x="0" y="-4357" width="1440" height="5733">
<rect y="-4357" width="1440" height="5733" fill="#D9D9D9"/>
</mask>
<g mask="url(#mask0_719_3760)">
<g filter="url(#filter0_f_719_3760)">
<path d="M1227.24 -325.363C1304.06 -411.319 1436.01 -418.728 1521.97 -341.911C1607.92 -265.094 1615.33 -133.14 1538.51 -47.1846C1461.7 38.7714 1443.45 -81.0504 1357.49 -157.867C1271.54 -234.684 1150.42 -239.407 1227.24 -325.363Z" fill="#DCDFFF"/>
</g>
<g filter="url(#filter1_f_719_3760)">
<path d="M872.254 628.061C872.254 515.961 963.129 425.087 1075.23 425.087C1187.33 425.087 1278.2 515.961 1278.2 628.061C1278.2 740.161 1187.33 665.108 1075.23 665.108C963.129 665.108 872.254 740.161 872.254 628.061Z" fill="#C2E6FF"/>
<path d="M1112.27 338.655C1175.54 267.859 1284.22 261.757 1355.01 325.026C1425.81 388.295 1431.91 496.977 1368.64 567.773C1305.37 638.57 1290.34 539.88 1219.55 476.611C1148.75 413.342 1049 409.452 1112.27 338.655Z" fill="#C2E6FF"/>
<path d="M1141.2 369.846C1141.2 248.265 1042.71 149.704 921.203 149.704C799.7 149.704 701.203 248.265 701.203 369.846C701.203 491.428 799.7 410.026 921.203 410.026C1042.71 410.026 1141.2 491.428 1141.2 369.846Z" fill="#DCDFFF"/>
<path d="M1378.73 648.684C1330.57 594.799 1247.85 590.154 1193.96 638.31C1140.08 686.466 1135.43 769.187 1183.59 823.073C1231.75 876.958 1243.19 801.842 1297.07 753.686C1350.96 705.53 1426.88 702.569 1378.73 648.684Z" fill="#DCDFFF"/>
</g>
<g filter="url(#filter2_f_719_3760)">
<path d="M126.102 1257.97C6.30516 1211.17 -52.8711 1076.12 -6.07192 956.32C40.7273 836.524 175.78 777.347 295.577 824.147C415.374 870.946 297.229 936.727 250.43 1056.52C203.631 1176.32 245.899 1304.77 126.102 1257.97Z" fill="#C2E6FF"/>
<path d="M528.182 915.162C585.667 850.838 684.412 845.294 748.735 902.779C813.059 960.263 818.603 1059.01 761.119 1123.33C703.634 1187.66 689.977 1097.99 625.653 1040.5C561.329 983.02 470.698 979.486 528.182 915.162Z" fill="#C2E6FF"/>
<path d="M746.172 371.146C806.729 303.385 910.751 297.544 978.513 358.101C1046.27 418.658 1052.12 522.681 991.558 590.443C931.001 658.204 916.614 563.745 848.852 503.188C781.091 442.631 685.615 438.908 746.172 371.146Z" fill="#C2E6FF"/>
</g>
</g>
</g>
<defs>
<filter id="filter0_f_719_3760" x="-387.203" y="-1416.13" width="2178.81" height="1598.73" filterUnits="userSpaceOnUse" color-interpolation-filters="sRGB">
<feFlood flood-opacity="0" result="BackgroundImageFix"/>
<feBlend mode="normal" in="SourceGraphic" in2="BackgroundImageFix" result="shape"/>
<feGaussianBlur stdDeviation="100" result="effect1_foregroundBlur_719_3760"/>
</filter>
<filter id="filter1_f_719_3760" x="501.203" y="-50.2964" width="1111.17" height="1092.04" filterUnits="userSpaceOnUse" color-interpolation-filters="sRGB">
<feFlood flood-opacity="0" result="BackgroundImageFix"/>
<feBlend mode="normal" in="SourceGraphic" in2="BackgroundImageFix" result="shape"/>
<feGaussianBlur stdDeviation="100" result="effect1_foregroundBlur_719_3760"/>
</filter>
<filter id="filter2_f_719_3760" x="-222.102" y="116.244" width="1700.3" height="1351.59" filterUnits="userSpaceOnUse" color-interpolation-filters="sRGB">
<feFlood flood-opacity="0" result="BackgroundImageFix"/>
<feBlend mode="normal" in="SourceGraphic" in2="BackgroundImageFix" result="shape"/>
<feGaussianBlur stdDeviation="100" result="effect1_foregroundBlur_719_3760"/>
</filter>
<clipPath id="clip0_719_3760">
<rect width="1440" height="799" fill="white"/>
</clipPath>
</defs>
</svg>
