<svg width="30" height="30" viewBox="0 0 30 30" fill="none" xmlns="http://www.w3.org/2000/svg">
<rect x="1" y="1.00024" width="28" height="28" rx="8" stroke="#002D4C" stroke-width="2"/>
<path d="M15.0047 8.44171C17.1434 8.44171 17.3967 8.45109 18.2378 8.48862C19.0195 8.52301 19.4417 8.65434 19.7231 8.76378C20.0952 8.90761 20.3641 9.08271 20.6424 9.361C20.9238 9.64242 21.0958 9.9082 21.2396 10.2803C21.349 10.5617 21.4804 10.987 21.5148 11.7655C21.5523 12.6098 21.5617 12.8631 21.5617 14.9987C21.5617 17.1374 21.5523 17.3907 21.5148 18.2318C21.4804 19.0135 21.349 19.4357 21.2396 19.7171C21.0958 20.0892 20.9207 20.3581 20.6424 20.6364C20.361 20.9178 20.0952 21.0898 19.7231 21.2336C19.4417 21.343 19.0164 21.4743 18.2378 21.5087C17.3936 21.5463 17.1403 21.5556 15.0047 21.5556C12.8659 21.5556 12.6127 21.5463 11.7715 21.5087C10.9898 21.4743 10.5677 21.343 10.2863 21.2336C9.91421 21.0898 9.6453 20.9146 9.36701 20.6364C9.0856 20.3549 8.91362 20.0892 8.76979 19.7171C8.66035 19.4357 8.52902 19.0104 8.49463 18.2318C8.4571 17.3876 8.44772 17.1343 8.44772 14.9987C8.44772 12.8599 8.4571 12.6067 8.49463 11.7655C8.52902 10.9838 8.66035 10.5617 8.76979 10.2803C8.91362 9.9082 9.08872 9.63929 9.36701 9.361C9.64843 9.07959 9.91421 8.90761 10.2863 8.76378C10.5677 8.65434 10.993 8.52301 11.7715 8.48862C12.6127 8.45109 12.8659 8.44171 15.0047 8.44171ZM15.0047 7.00024C12.8315 7.00024 12.5595 7.00962 11.7059 7.04715C10.8554 7.08467 10.2707 7.22225 9.76412 7.41924C9.23568 7.62561 8.78855 7.89764 8.34454 8.34478C7.8974 8.78879 7.62537 9.23593 7.419 9.76124C7.22201 10.2709 7.08442 10.8525 7.0469 11.703C7.00938 12.5598 7 12.8318 7 15.0049C7 17.1781 7.00938 17.4501 7.0469 18.3037C7.08442 19.1542 7.22201 19.739 7.419 20.2455C7.62537 20.7739 7.8974 21.2211 8.34454 21.6651C8.78855 22.1091 9.23568 22.3843 9.76099 22.5875C10.2707 22.7845 10.8523 22.9221 11.7028 22.9596C12.5564 22.9971 12.8284 23.0065 15.0016 23.0065C17.1747 23.0065 17.4467 22.9971 18.3004 22.9596C19.1509 22.9221 19.7356 22.7845 20.2421 22.5875C20.7674 22.3843 21.2146 22.1091 21.6586 21.6651C22.1026 21.2211 22.3778 20.7739 22.581 20.2486C22.778 19.739 22.9156 19.1574 22.9531 18.3069C22.9906 17.4532 23 17.1812 23 15.0081C23 12.8349 22.9906 12.5629 22.9531 11.7093C22.9156 10.8588 22.778 10.274 22.581 9.76749C22.384 9.23593 22.112 8.78879 21.6648 8.34478C21.2208 7.90077 20.7737 7.62561 20.2484 7.42237C19.7387 7.22538 19.1571 7.0878 18.3066 7.05027C17.4499 7.00962 17.1778 7.00024 15.0047 7.00024Z" fill="#002D4C"/>
<path d="M15.0024 10.8931C12.7323 10.8931 10.8906 12.7348 10.8906 15.0049C10.8906 17.2749 12.7323 19.1166 15.0024 19.1166C17.2725 19.1166 19.1142 17.2749 19.1142 15.0049C19.1142 12.7348 17.2725 10.8931 15.0024 10.8931ZM15.0024 17.672C13.5297 17.672 12.3352 16.4776 12.3352 15.0049C12.3352 13.5321 13.5297 12.3377 15.0024 12.3377C16.4751 12.3377 17.6696 13.5321 17.6696 15.0049C17.6696 16.4776 16.4751 17.672 15.0024 17.672Z" fill="#002D4C"/>
<path d="M20.2402 10.7304C20.2402 11.262 19.8087 11.6904 19.2803 11.6904C18.7487 11.6904 18.3203 11.2589 18.3203 10.7304C18.3203 10.1989 18.7518 9.77051 19.2803 9.77051C19.8087 9.77051 20.2402 10.202 20.2402 10.7304Z" fill="#002D4C"/>
</svg>
