<svg width="2554" height="1003" viewBox="0 0 2554 1003" fill="none" xmlns="http://www.w3.org/2000/svg">
<g clip-path="url(#clip0_742_3183)">
<rect width="2554" height="1003" fill="#2873A5"/>
<g filter="url(#filter0_d_742_3183)">
<path d="M0.9375 60C0.9375 26.8629 27.8004 0 60.9375 0H2493.82C2526.95 0 2553.82 26.8629 2553.82 60V1003.42H0.9375V60Z" fill="#2873A5"/>
</g>
<g filter="url(#filter1_f_742_3183)">
<path d="M1933.68 1264.82C2069.87 1417.21 2303.8 1430.34 2456.18 1294.16C2608.57 1157.97 2621.7 924.042 2485.52 771.657C2349.34 619.271 2316.98 831.695 2164.6 967.879C2012.21 1104.06 1797.5 1112.44 1933.68 1264.82Z" fill="#C2C8FF"/>
</g>
<g filter="url(#filter2_f_742_3183)">
<path d="M-424.113 963.439C-287.93 1115.82 -53.9987 1128.96 98.3867 992.775C250.772 856.592 263.907 622.661 127.723 470.275C-8.46037 317.89 -40.8154 530.314 -193.201 666.497C-345.586 802.68 -560.297 811.054 -424.113 963.439Z" fill="#A9DCFF"/>
</g>
<g filter="url(#filter3_f_742_3183)">
<path d="M2272.37 656.942C2408.56 809.327 2588.36 870.833 2673.98 794.32C2759.59 717.806 2718.6 532.247 2582.42 379.861C2446.23 227.476 2468.01 391.528 2382.39 468.041C2296.77 544.555 2136.19 504.556 2272.37 656.942Z" fill="#A9DCFF"/>
</g>
<g filter="url(#filter4_d_742_3183)">
<path d="M1836.58 656.277C1814.81 636.467 1785.34 643.481 1770.35 668.969C1754.91 695.225 1756.89 743.103 1779.91 764.395C1793.21 776.705 1814.58 782.416 1829.6 774.545C1857.59 759.871 1868.81 709.312 1849.6 672.615" stroke="#002D4C" stroke-opacity="0.1" stroke-width="10" stroke-miterlimit="1.5" stroke-linecap="round" stroke-linejoin="round"/>
<path d="M1940.76 552.009C1918.99 532.199 1889.52 539.213 1874.53 564.701C1859.09 590.958 1861.07 638.836 1884.09 660.128C1897.39 672.437 1918.76 678.149 1933.78 670.277C1961.77 655.604 1972.99 605.044 1953.78 568.348" stroke="#002D4C" stroke-opacity="0.1" stroke-width="10" stroke-miterlimit="1.5" stroke-linecap="round" stroke-linejoin="round"/>
<path d="M2078.54 538.36C2056.77 518.55 2027.3 525.564 2012.31 551.052C1996.87 577.308 1998.85 625.186 2021.87 646.479C2035.17 658.788 2056.54 664.499 2071.56 656.628C2099.55 641.954 2110.77 591.395 2091.56 554.698" stroke="#002D4C" stroke-opacity="0.1" stroke-width="10" stroke-miterlimit="1.5" stroke-linecap="round" stroke-linejoin="round"/>
<path d="M2198 627.199C2176.23 607.388 2146.77 614.403 2131.77 639.891C2116.33 666.147 2118.31 714.025 2141.33 735.317C2154.63 747.627 2176 753.338 2191.02 745.466C2219.01 730.793 2230.23 680.234 2211.02 643.537" stroke="#002D4C" stroke-opacity="0.1" stroke-width="10" stroke-miterlimit="1.5" stroke-linecap="round" stroke-linejoin="round"/>
<path d="M2080.2 766.086C2069.44 649.627 1924.93 670.556 1908.09 775.8C1797.19 790.088 1771.16 990.443 1893.97 969.744C1987.02 918.74 1999.36 907.452 2108.29 950.396C2115.86 953.379 2143.78 943.174 2159.93 933.443C2258.33 874.135 2184.86 733.831 2080.2 766.086Z" stroke="#002D4C" stroke-opacity="0.1" stroke-width="10" stroke-miterlimit="1.5" stroke-linecap="round" stroke-linejoin="round"/>
</g>
</g>
<defs>
<filter id="filter0_d_742_3183" x="-9.0625" y="-14" width="2572.88" height="1023.42" filterUnits="userSpaceOnUse" color-interpolation-filters="sRGB">
<feFlood flood-opacity="0" result="BackgroundImageFix"/>
<feColorMatrix in="SourceAlpha" type="matrix" values="0 0 0 0 0 0 0 0 0 0 0 0 0 0 0 0 0 0 127 0" result="hardAlpha"/>
<feOffset dy="-4"/>
<feGaussianBlur stdDeviation="5"/>
<feComposite in2="hardAlpha" operator="out"/>
<feColorMatrix type="matrix" values="0 0 0 0 0.570833 0 0 0 0 0.816071 0 0 0 0 1 0 0 0 0.2 0"/>
<feBlend mode="normal" in2="BackgroundImageFix" result="effect1_dropShadow_742_3183"/>
<feBlend mode="normal" in="SourceGraphic" in2="effect1_dropShadow_742_3183" result="shape"/>
</filter>
<filter id="filter1_f_742_3183" x="1760.34" y="588.86" width="949.305" height="929.428" filterUnits="userSpaceOnUse" color-interpolation-filters="sRGB">
<feFlood flood-opacity="0" result="BackgroundImageFix"/>
<feBlend mode="normal" in="SourceGraphic" in2="BackgroundImageFix" result="shape"/>
<feGaussianBlur stdDeviation="65" result="effect1_foregroundBlur_742_3183"/>
</filter>
<filter id="filter2_f_742_3183" x="-597.453" y="287.479" width="949.305" height="929.428" filterUnits="userSpaceOnUse" color-interpolation-filters="sRGB">
<feFlood flood-opacity="0" result="BackgroundImageFix"/>
<feBlend mode="normal" in="SourceGraphic" in2="BackgroundImageFix" result="shape"/>
<feGaussianBlur stdDeviation="65" result="effect1_foregroundBlur_742_3183"/>
</filter>
<filter id="filter3_f_742_3183" x="2089.62" y="187.24" width="759.078" height="769.975" filterUnits="userSpaceOnUse" color-interpolation-filters="sRGB">
<feFlood flood-opacity="0" result="BackgroundImageFix"/>
<feBlend mode="normal" in="SourceGraphic" in2="BackgroundImageFix" result="shape"/>
<feGaussianBlur stdDeviation="65" result="effect1_foregroundBlur_742_3183"/>
</filter>
<filter id="filter4_d_742_3183" x="1751.39" y="521.916" width="478.203" height="462.323" filterUnits="userSpaceOnUse" color-interpolation-filters="sRGB">
<feFlood flood-opacity="0" result="BackgroundImageFix"/>
<feColorMatrix in="SourceAlpha" type="matrix" values="0 0 0 0 0 0 0 0 0 0 0 0 0 0 0 0 0 0 127 0" result="hardAlpha"/>
<feOffset dy="4"/>
<feGaussianBlur stdDeviation="2"/>
<feComposite in2="hardAlpha" operator="out"/>
<feColorMatrix type="matrix" values="0 0 0 0 0.0484083 0 0 0 0 0.187325 0 0 0 0 0.283366 0 0 0 0.2 0"/>
<feBlend mode="normal" in2="BackgroundImageFix" result="effect1_dropShadow_742_3183"/>
<feBlend mode="normal" in="SourceGraphic" in2="effect1_dropShadow_742_3183" result="shape"/>
</filter>
<clipPath id="clip0_742_3183">
<rect width="2554" height="1003" fill="white"/>
</clipPath>
</defs>
</svg>
