<svg width="20" height="20" viewBox="0 0 20 20" fill="none" xmlns="http://www.w3.org/2000/svg">
<path d="M16.825 8.09919C16.825 7.68498 16.4892 7.34919 16.075 7.34919C15.6608 7.34919 15.325 7.68498 15.325 8.09919H16.825ZM4.67499 8.09919C4.67499 7.68498 4.33921 7.34919 3.92499 7.34919C3.51078 7.34919 3.17499 7.68498 3.17499 8.09919H4.67499ZM12.0944 17.2559L11.9219 16.526H11.9219L12.0944 17.2559ZM7.90561 17.2559L8.07804 16.526L7.90561 17.2559ZM12.357 4.17852L11.8248 4.70697L12.357 4.17852ZM16.9678 9.88653C17.2596 10.1805 17.7345 10.1821 18.0284 9.89029C18.3224 9.59844 18.3241 9.12357 18.0322 8.82964L16.9678 9.88653ZM7.64298 4.17852L8.17518 4.70697L8.17518 4.70697L7.64298 4.17852ZM1.96779 8.82964C1.67594 9.12357 1.67762 9.59844 1.97155 9.89029C2.26548 10.1821 2.74035 10.1805 3.03221 9.88653L1.96779 8.82964ZM8.09869 15.2669L7.36156 15.1286V15.1286L8.09869 15.2669ZM8.1148 15.1811L8.85193 15.3194L8.85193 15.3194L8.1148 15.1811ZM11.8852 15.1811L11.1481 15.3194L11.1481 15.3194L11.8852 15.1811ZM11.9013 15.2669L12.6384 15.1286L12.6384 15.1286L11.9013 15.2669ZM11.6598 17.1266L10.9826 16.8043L10.9826 16.8043L11.6598 17.1266ZM10.8853 17.0088C10.7073 17.3828 10.8662 17.8303 11.2402 18.0083C11.6142 18.1863 12.0617 18.0274 12.2397 17.6534L10.8853 17.0088ZM8.34019 17.1266L7.66296 17.4489L7.66296 17.4489L8.34019 17.1266ZM7.76028 17.6534C7.93827 18.0274 8.38577 18.1863 8.75979 18.0083C9.13381 17.8303 9.29272 17.3828 9.11472 17.0088L7.76028 17.6534ZM9.46755 13.7021L9.26702 12.9794L9.46755 13.7021ZM10.5325 13.7021L10.733 12.9794L10.5325 13.7021ZM15.325 8.09919V12.1978H16.825V8.09919H15.325ZM4.67499 12.1978V8.09919H3.17499V12.1978H4.67499ZM11.9219 16.526C10.6578 16.8247 9.34221 16.8247 8.07804 16.526L7.73318 17.9858C9.22413 18.3381 10.7759 18.3381 12.2668 17.9858L11.9219 16.526ZM8.07804 16.526C6.08787 16.0559 4.67499 14.2657 4.67499 12.1978H3.17499C3.17499 14.9545 5.05948 17.3542 7.73318 17.9858L8.07804 16.526ZM12.2668 17.9858C14.9405 17.3542 16.825 14.9545 16.825 12.1978H15.325C15.325 14.2657 13.9121 16.0559 11.9219 16.526L12.2668 17.9858ZM11.8248 4.70697L16.9678 9.88653L18.0322 8.82964L12.8892 3.65008L11.8248 4.70697ZM7.11077 3.65008L1.96779 8.82964L3.03221 9.88653L8.17518 4.70697L7.11077 3.65008ZM12.8892 3.65008C12.3486 3.10565 11.8911 2.64258 11.4777 2.32492C11.0472 1.99414 10.5767 1.75 10 1.75V3.25C10.1136 3.25 10.2661 3.28561 10.5638 3.51434C10.8785 3.75619 11.2543 4.13238 11.8248 4.70697L12.8892 3.65008ZM8.17518 4.70697C8.74571 4.13238 9.1215 3.75619 9.43624 3.51434C9.7339 3.28562 9.88638 3.25 10 3.25V1.75C9.42326 1.75 8.95278 1.99414 8.5223 2.32492C8.1089 2.64258 7.65135 3.10565 7.11077 3.65008L8.17518 4.70697ZM8.83581 15.4053L8.85193 15.3194L7.37768 15.0427L7.36156 15.1286L8.83581 15.4053ZM11.1481 15.3194L11.1642 15.4053L12.6384 15.1286L12.6223 15.0427L11.1481 15.3194ZM10.9826 16.8043L10.8853 17.0088L12.2397 17.6534L12.337 17.4489L10.9826 16.8043ZM7.66296 17.4489L7.76028 17.6534L9.11472 17.0088L9.01741 16.8043L7.66296 17.4489ZM11.1642 15.4053C11.2532 15.8794 11.1894 16.3696 10.9826 16.8043L12.337 17.4489C12.6805 16.7272 12.7859 15.9144 12.6384 15.1286L11.1642 15.4053ZM7.36156 15.1286C7.21406 15.9144 7.31953 16.7272 7.66296 17.4489L9.01741 16.8043C8.81057 16.3696 8.74682 15.8794 8.83581 15.4053L7.36156 15.1286ZM9.66807 14.4248C9.88534 14.3645 10.1147 14.3645 10.3319 14.4248L10.733 12.9794C10.2533 12.8463 9.7467 12.8463 9.26702 12.9794L9.66807 14.4248ZM12.6223 15.0427C12.4362 14.0512 11.7051 13.2492 10.733 12.9794L10.3319 14.4248C10.7482 14.5403 11.0667 14.8857 11.1481 15.3194L12.6223 15.0427ZM8.85193 15.3194C8.93333 14.8857 9.2518 14.5403 9.66807 14.4248L9.26702 12.9794C8.29491 13.2492 7.56378 14.0512 7.37768 15.0427L8.85193 15.3194Z" fill="#8F9AFF"/>
</svg>
