<svg width="414" height="870" viewBox="0 0 414 870" fill="none" xmlns="http://www.w3.org/2000/svg">
<g clip-path="url(#clip0_715_3073)">
<rect width="414" height="870" fill="#F5FBFF"/>
<mask id="mask0_715_3073" style="mask-type:alpha" maskUnits="userSpaceOnUse" x="-3" y="0" width="417" height="870">
<rect x="-3" width="417" height="870" fill="#D9D9D9"/>
</mask>
<g mask="url(#mask0_715_3073)">
<g filter="url(#filter0_f_715_3073)">
<path d="M360.471 -41.5604C396.851 -28.0298 414.822 11.0168 400.61 45.6525C386.398 80.2883 345.385 97.3974 309.005 83.8667C272.625 70.3361 308.504 51.3173 322.716 16.6816C336.927 -17.9542 324.091 -55.0911 360.471 -41.5604Z" fill="#C2E6FF"/>
<path d="M181.393 725.564C195.669 772.054 169.961 823.212 123.971 839.83C77.9814 856.448 29.1264 832.232 14.8504 785.743C0.574339 739.254 47.4144 756.908 93.404 740.29C139.394 723.672 167.117 679.075 181.393 725.564Z" fill="#C2E6FF"/>
<path d="M29.0912 436.714C-34.4697 401.233 -59.6361 319.31 -27.1193 253.735C5.39738 188.159 83.2838 163.763 146.845 199.244C210.406 234.726 141.49 264.13 108.974 329.705C76.4568 395.281 92.6522 472.196 29.0912 436.714Z" fill="#C2E6FF"/>
<path d="M514.654 656.256C476.849 696.531 411.908 700.002 369.605 664.009C327.302 628.016 323.655 566.189 361.461 525.913C399.266 485.638 408.248 541.781 450.551 577.774C492.855 613.767 552.46 615.98 514.654 656.256Z" fill="#C2E6FF"/>
<path d="M421.641 490.345C390.317 523.715 336.511 526.592 301.46 496.769C266.41 466.947 263.389 415.72 294.713 382.35C326.036 348.98 333.478 395.498 368.529 425.32C403.579 455.142 452.965 456.975 421.641 490.345Z" fill="#C2E6FF"/>
<path d="M506.716 45.2767C468.728 4.80697 403.473 1.31883 360.966 37.4857C318.458 73.6525 314.794 135.779 352.782 176.248C390.77 216.718 399.796 160.304 442.303 124.137C484.811 87.9701 544.704 85.7464 506.716 45.2767Z" fill="#DCDFFF"/>
<path d="M238.408 590.205C188.533 537.072 102.86 532.493 47.0523 579.976C-8.75579 627.46 -13.566 709.025 36.3085 762.158C86.1829 815.291 98.0323 741.224 153.84 693.741C209.649 646.257 288.282 643.338 238.408 590.205Z" fill="#DCDFFF"/>
<path d="M316.614 847.297C291.423 887.845 303.012 942.837 342.499 970.125C381.986 997.414 434.418 986.665 459.608 946.117C484.799 905.57 435.923 910.595 396.436 883.307C356.949 856.019 341.804 806.749 316.614 847.297Z" fill="#DCDFFF"/>
<path d="M293.599 -32.0429C259.581 -19.3907 242.777 17.1207 256.066 49.5077C269.356 81.8947 307.705 97.893 341.723 85.2408C375.741 72.5887 342.192 54.8047 328.903 22.4177C315.614 -9.96927 327.617 -44.695 293.599 -32.0429Z" fill="#DCDFFF"/>
</g>
<g filter="url(#filter1_f_715_3073)">
<path d="M69.5345 574.708C51.1927 595.231 19.6858 597 -0.838099 578.659C-21.362 560.317 -23.131 528.81 -4.78925 508.286C13.5525 487.762 17.9102 516.372 38.4342 534.714C58.9581 553.056 87.8763 554.184 69.5345 574.708Z" fill="#C2E6FF"/>
<path d="M442.917 675.594C422.112 698.873 386.376 700.88 363.096 680.075C339.817 659.271 337.81 623.534 358.614 600.254C379.419 576.975 384.362 609.426 407.641 630.231C430.92 651.035 463.721 652.314 442.917 675.594Z" fill="#C2E6FF"/>
<path d="M268 327.517C268 383.012 312.995 428 368.5 428C424.005 428 469 383.012 469 327.517C469 272.021 424.005 309.177 368.5 309.177C312.995 309.177 268 272.021 268 327.517Z" fill="#DCDFFF"/>
<path d="M414.399 579.984C392.13 555.066 353.876 552.918 328.958 575.187C304.039 597.457 301.891 635.71 324.16 660.629C346.43 685.547 351.72 650.811 376.639 628.542C401.558 606.272 436.668 604.903 414.399 579.984Z" fill="#DCDFFF"/>
</g>
</g>
</g>
<defs>
<filter id="filter0_f_715_3073" x="-110.336" y="-113.412" width="706.023" height="1167.62" filterUnits="userSpaceOnUse" color-interpolation-filters="sRGB">
<feFlood flood-opacity="0" result="BackgroundImageFix"/>
<feBlend mode="normal" in="SourceGraphic" in2="BackgroundImageFix" result="shape"/>
<feGaussianBlur stdDeviation="34.5" result="effect1_foregroundBlur_715_3073"/>
</filter>
<filter id="filter1_f_715_3073" x="-107.469" y="207" width="666.469" height="577.455" filterUnits="userSpaceOnUse" color-interpolation-filters="sRGB">
<feFlood flood-opacity="0" result="BackgroundImageFix"/>
<feBlend mode="normal" in="SourceGraphic" in2="BackgroundImageFix" result="shape"/>
<feGaussianBlur stdDeviation="45" result="effect1_foregroundBlur_715_3073"/>
</filter>
<clipPath id="clip0_715_3073">
<rect width="414" height="870" fill="white"/>
</clipPath>
</defs>
</svg>
